<?xml version="1.0" encoding="UTF-8"?>
<svg width="253px" height="245px" viewBox="0 0 253 245" version="1.1" xmlns="http://www.w3.org/2000/svg" xmlns:xlink="http://www.w3.org/1999/xlink">
    <title>chatterbox icon</title>
    <g id="Page-1" stroke="none" stroke-width="1" fill="none" fill-rule="evenodd">
        <g id="noun_chat_2242764">
            <path d="M37.499396,166.63967 C25.097635,142.626495 21.6499781,115.405454 27.6368098,89.0191125 C41.5908334,27.5033561 102.691157,-11.1219791 164.128076,2.86170162 C225.542119,16.8388356 264.10359,78.0403519 250.14303,139.579022 C236.189006,201.094778 175.088683,239.720113 113.651764,225.736432 C103.223828,223.363266 93.256668,219.602205 83.8875378,214.449979 L0,245 L37.499396,166.63967 Z" id="Path" fill="#42989D"></path>
            <path d="M58.2637675,165.870436 L36.0811182,212.227385 L85.8842377,194.093118 C95.3023866,200.374645 106.001561,205.081698 117.690915,207.742918 C169.212961,219.467999 220.470305,187.140557 232.179267,135.533181 C243.884961,83.9258055 211.610971,32.5835697 160.088925,20.8552158 C108.566879,9.13013525 57.3095345,41.4575768 45.6005728,93.0649526 C39.698707,119.084681 44.9796677,145.029122 58.2637675,165.870436 Z" id="Path" fill="#64C2CA"></path>
            <polygon id="Path" fill="#42989D" points="76.537983 95.2711794 93.8906447 105.303947 93.8906447 125.376028 76.537983 135.412068 59.1853213 125.376028 59.1853213 105.303947"></polygon>
            <polygon id="Path" fill="#42989D" points="200.071941 95.2711794 217.424603 105.303947 217.424603 125.376028 200.071941 135.412068 182.719279 125.376028 182.719279 105.303947"></polygon>
            <polygon id="Path" fill="#42989D" points="138.304962 95.2711794 155.657624 105.303947 155.657624 125.376028 138.304962 135.412068 120.9523 125.376028 120.9523 105.303947"></polygon>
        </g>
    </g>
</svg>
