<svg height='100px' width='100px'  fill="#000000" xmlns="http://www.w3.org/2000/svg" xmlns:xlink="http://www.w3.org/1999/xlink" xml:space="preserve" version="1.1" style="shape-rendering:geometricPrecision;text-rendering:geometricPrecision;image-rendering:optimizeQuality;" viewBox="0 0 774.2 748.48" x="0px" y="0px" fill-rule="evenodd" clip-rule="evenodd"><defs><style type="text/css">
   
    .fil0 {fill:#000000}
   
  </style></defs><g><path class="fil0" d="M234.21 291.06l53.1 30.65 0 61.32 -53.1 30.66 -53.1 -30.66 0 -61.32 53.1 -30.65zm-55.92 215.68l-67.88 141.62 152.4 -55.4c28.82,19.19 61.56,33.57 97.33,41.7 157.66,35.82 314.51,-62.94 350.34,-220.6 35.82,-157.66 -62.94,-314.51 -220.6,-350.34 -157.66,-35.82 -314.51,62.94 -350.34,220.6 -18.06,79.49 -1.9,158.75 38.75,222.42zm-63.54 2.35c-37.95,-73.36 -48.5,-156.52 -30.18,-237.13 42.7,-187.93 229.67,-305.93 417.67,-263.21 187.93,42.7 305.93,229.67 263.21,417.67 -42.7,187.93 -229.67,305.93 -417.67,263.21 -31.91,-7.25 -62.41,-18.74 -91.08,-34.48l-256.7 93.33 114.75 -239.39zm497.48 -218.03l53.1 30.65 0 61.32 -53.1 30.66 -53.1 -30.66 0 -61.32 53.1 -30.65zm-189.01 0l53.1 30.65 0 61.32 -53.1 30.66 -53.1 -30.66 0 -61.32 53.1 -30.65z"></path></g></svg>